<svg id="Capa_1" enable-background="new 0 0 511.972 511.972" height="512" viewBox="0 0 511.972 511.972" width="512" xmlns="http://www.w3.org/2000/svg"><g><g><g><path d="m365.231 287.036c-21.034-2.228-53.7-8.275-89.474-26.306-32.397-16.329-55.13-36.329-69.239-50.842 8.588 19.33 19.683 50.643 21.955 90.64 2.057 36.221-3.897 65.908-9.411 85.384 12.446-17.102 34.016-42.368 67.519-64.333 30.339-19.894 59.026-29.581 78.65-34.543z" fill="#ffcd69"/></g></g><g><path d="m295.887 180.834c4.296.747 8.524 1.117 12.638 1.117 11.855 0 22.752-3.07 31.523-9.006 18.243-12.34 30.588-31.044 34.763-52.668 4.174-21.624-.323-43.577-12.663-61.815-20.682-30.57-56.366-47.343-93.127-43.753-5.497.536-9.519 5.426-8.983 10.923s5.434 9.524 10.923 8.982c29.466-2.869 58.053 10.561 74.623 35.056 9.346 13.812 12.751 30.439 9.59 46.817-3.162 16.378-12.513 30.546-26.332 39.894-7.57 5.123-18.167 6.791-29.838 4.694-.29-.052-.582-.091-.876-.117-8.309-.744-16.63-6.543-21.717-15.134-4.782-8.078-5.662-16.972-2.411-24.402.019-.042.037-.085.055-.128 2.5-5.939 7.509-10.541 13.741-12.624 6.29-2.103 13.132-1.426 18.775 1.858 3.41 1.984 5.17 4.459 5.707 8.023.823 5.461 5.913 9.223 11.379 8.398 5.461-.823 9.221-5.917 8.398-11.378-1.443-9.575-6.777-17.296-15.425-22.329-10.61-6.175-23.431-7.466-35.176-3.54-11.665 3.9-21.068 12.562-25.808 23.771-5.827 13.381-4.533 28.882 3.554 42.541 8.221 13.883 22.243 23.357 36.687 24.82z"/><path d="m511.711 390.069c-4.827-67.754-63.897-118.939-131.647-114.121l-14.611 1.046c-29.813-3.257-58.474-11.726-85.196-25.194-24.532-12.365-46.724-28.613-65.981-48.29l-8.213-12.133c-23.279-34.416-23.713-79.178-1.104-114.036 3.005-4.633 1.686-10.826-2.948-13.832-4.633-3.005-10.826-1.684-13.831 2.949-26.987 41.61-26.47 95.042 1.32 136.127l8.21 12.129c12.087 27.449 19.082 56.505 20.779 86.38 1.559 27.43-1.417 54.773-8.83 81.287l-6.401 13.179c-24.878 51.179-86.75 72.579-137.923 47.703-39.952-19.418-56.657-67.721-37.238-107.677 7.289-15 19.985-26.262 35.75-31.713 15.766-5.451 32.711-4.437 47.716 2.858 8.221 3.994 14.963 12.337 18.984 23.493.1.277.212.55.337.817 3.51 7.567 2.649 17.673-2.248 26.374-4.604 8.181-11.868 13.389-19.927 14.289-.046.005-.093.01-.139.016-6.392.807-12.882-1.231-17.803-5.588-4.966-4.396-7.802-10.661-7.779-17.188.014-3.946 1.276-6.707 4.095-8.955 4.318-3.443 5.027-9.735 1.583-14.053-3.443-4.318-9.734-5.027-14.053-1.583-7.57 6.037-11.59 14.517-11.625 24.521-.043 12.278 5.25 24.027 14.522 32.234 9.21 8.152 21.408 11.964 33.487 10.464 14.503-1.644 27.282-10.515 35.067-24.349 7.913-14.06 9.107-30.941 3.152-44.181-5.826-15.896-16.082-28.068-28.912-34.3-19.809-9.629-42.179-10.969-62.993-3.772-20.815 7.197-37.578 22.068-47.202 41.874-24.239 49.873-3.386 110.168 46.484 134.406 17.294 8.406 35.607 12.385 53.656 12.385 45.711 0 89.706-25.531 110.999-69.335l6.399-13.175c17.728-24.192 39.394-44.778 64.418-61.186 22.975-15.064 48.142-26.159 74.81-32.996l14.615-1.047c56.746-4.037 106.229 38.839 110.272 95.593 1.531 21.467-5.389 42.243-19.483 58.501s-33.68 26.056-55.148 27.586c-16.632 1.186-32.736-4.176-45.339-15.103-12.603-10.928-20.197-26.11-21.383-42.752-.651-9.117 3.203-19.128 10.853-28.188.189-.225.37-.458.539-.699 4.799-6.824 13.981-11.131 23.965-11.241 9.385-.111 17.529 3.583 22.338 10.112.027.038.056.075.084.112 3.893 5.134 5.374 11.772 4.062 18.212-1.324 6.5-5.332 12.087-10.995 15.331-3.425 1.961-6.446 2.249-9.803.931-5.142-2.018-10.945.514-12.963 5.654-2.017 5.141.514 10.944 5.654 12.963 9.012 3.536 18.365 2.78 27.05-2.192 10.654-6.102 18.183-16.561 20.653-28.694 2.455-12.053-.345-24.526-7.683-34.235-8.675-11.737-22.701-18.384-38.618-18.192-16.133.177-31.35 7.583-39.838 19.36-10.853 12.993-16.266 27.962-15.249 42.19 1.565 21.969 11.591 42.012 28.23 56.439 15.121 13.111 34.058 20.156 53.871 20.156 1.989 0 3.988-.071 5.992-.214 26.797-1.911 51.243-14.14 68.838-34.435 17.595-20.293 26.233-46.228 24.322-73.022zm-230.613-76.854c-16.142 10.584-30.993 22.775-44.415 36.443 2.123-16.44 2.72-33.055 1.775-49.698-1.095-19.273-4.227-38.229-9.353-56.688 13.177 10.061 27.265 18.884 42.152 26.387 17.239 8.689 35.221 15.454 53.77 20.244-15.301 6.381-29.989 14.171-43.929 23.312z"/><circle cx="228.11" cy="39.798" r="10"/></g></g></svg>